# xmcd
#
# Track frame offsets: 
#        150
#        23865
#        66038
#
# Disc length: 1203 seconds
#
# Revision: 0
# Processed by: cddbd v1.5.2PL0 Copyright (c) Steve Scherf et al.
# Submitted via: ExactAudioCopyFreeDBPlugin 1.0
#
DISCID=1e04b103
DTITLE=Sonic Brewery - Sonic Brewery
DYEAR=2017
DGENRE=Bluesrock
TTITLE0=Whiskey
TTITLE1=Blue Rock
TTITLE2=No. 8
EXTD=
EXTT0=
EXTT1=
EXTT2=
PLAYORDER=
